<svg width="200" height="200" viewBox="0 0 200 200" xmlns="http://www.w3.org/2000/svg">
  <!-- Red semi-circles / swooshes -->
  <path d="M 100 20 A 70 70 0 0 0 30 90 A 70 70 0 0 0 100 160" fill="none" stroke="#d32f2f" stroke-width="12" stroke-linecap="round"/>
  <path d="M 100 20 A 70 70 0 0 1 170 90 A 70 70 0 0 1 100 160" fill="none" stroke="#d32f2f" stroke-width="12" stroke-linecap="round"/>
  
  <!-- Gray Staff -->
  <rect x="94" y="25" width="12" height="130" fill="#9e9e9e" rx="2" />
  
  <!-- Green Snakes (Simplified approximation) -->
  <path d="M 85 45 C 100 35, 115 55, 100 75 C 85 95, 115 110, 100 130 C 90 145, 80 140, 85 130" fill="none" stroke="#1b5e20" stroke-width="10" stroke-linecap="round"/>
  <path d="M 115 45 C 100 35, 85 55, 100 75 C 115 95, 85 110, 100 130 C 110 145, 120 140, 115 130" fill="none" stroke="#1b5e20" stroke-width="10" stroke-linecap="round"/>
  
  <!-- Snake Heads / Wings at the top -->
  <path d="M 85 45 C 70 35, 80 20, 94 25" fill="#1b5e20" />
  <path d="M 115 45 C 130 35, 120 20, 106 25" fill="#1b5e20" />
</svg>
